<?xml version="1.0" encoding="UTF-8"?>
<svg id="Layer_2" data-name="Layer 2" xmlns="http://www.w3.org/2000/svg" viewBox="0 0 115.8 64.89">
  <defs>
    <style>
      .cls-1 {
        fill: #000;
        stroke-width: 0px;
      }
    </style>
  </defs>
  <g id="lineart">
    <g>
      <path class="cls-1" d="M1.69,64.27c-1.1-3.74-2-9.52,0-15.88,2.38-7.55,9.12-16.8,20.26-18.04,8.27-.92,17.08,3.06,21.42,9.67,1.45,2.2,1.87,3.93,2.18,5.18.21.85.33,1.3.58,1.53.4.36,3,1.76,15.49-6.08,11.55-7.26,28.89-20.7,51.53-39.95l1.21,1.42.73.86c-22.75,19.34-40.2,32.87-51.87,40.21-10.41,6.54-16.31,8.32-19.11,5.76-.94-.86-1.2-1.92-1.47-3.04-.28-1.16-.6-2.48-1.77-4.25-3.75-5.7-11.39-9.13-18.58-8.33-9.71,1.08-15.62,9.27-17.74,15.96-1.78,5.63-.98,10.79,0,14.12l-2.88.85Z"/>
      <path class="cls-1" d="M1.35,64.89l-.14-.48c-1.12-3.8-2.03-9.69.01-16.17,2.43-7.69,9.31-17.12,20.69-18.39,8.45-.94,17.45,3.13,21.89,9.89,1.49,2.27,1.93,4.04,2.24,5.34.14.59.28,1.14.44,1.29.02.02,2.23,1.82,14.89-6.14,11.53-7.24,28.85-20.67,51.47-39.91l.38-.32,2.59,3.05-.38.32c-22.77,19.36-40.24,32.9-51.93,40.25-10.78,6.77-16.68,8.48-19.71,5.7-1.06-.96-1.34-2.15-1.62-3.29-.27-1.12-.58-2.39-1.7-4.09-3.65-5.56-11.1-8.89-18.11-8.11-9.47,1.05-15.25,9.07-17.31,15.61-1.74,5.51-.95,10.56.01,13.83l.14.48-3.84,1.13ZM24.36,30.72c-.78,0-1.56.04-2.34.13-10.9,1.21-17.5,10.29-19.84,17.69-1.88,5.97-1.16,11.43-.14,15.1l1.92-.57c-.94-3.41-1.6-8.45.13-13.93,2.16-6.83,8.21-15.2,18.16-16.31,7.37-.81,15.2,2.7,19.05,8.55,1.21,1.84,1.54,3.2,1.84,4.4.27,1.09.49,2.03,1.33,2.79,2.57,2.35,8.45.5,18.51-5.81,11.59-7.28,28.89-20.68,51.43-39.84l-1.29-1.52c-22.47,19.09-39.7,32.44-51.2,39.67-12.14,7.62-15.3,6.76-16.09,6.03-.38-.35-.52-.92-.73-1.78-.3-1.22-.71-2.9-2.11-5.03-3.84-5.84-11.24-9.57-18.6-9.57Z"/>
    </g>
  </g>
</svg>